<mxfile host="app.diagrams.net" agent="Mozilla/5.0 (Windows NT 10.0; Win64; x64) AppleWebKit/537.36 (KHTML, like Gecko) Chrome/136.0.0.0 Safari/537.36" version="27.0.3">
  <diagram name="Página-1" id="8YE63FBxnr69J5w_-nsG">
    <mxGraphModel grid="1" page="1" gridSize="10" guides="1" tooltips="1" connect="1" arrows="1" fold="1" pageScale="1" pageWidth="827" pageHeight="1169" math="0" shadow="0">
      <root>
        <mxCell id="0" />
        <mxCell id="1" parent="0" />
        <mxCell id="fmvnAEAhjuRsIiG4iUqu-1" value="Usuário&lt;div&gt;&lt;br&gt;&lt;/div&gt;" style="shape=umlActor;verticalLabelPosition=bottom;verticalAlign=top;html=1;outlineConnect=0;" vertex="1" parent="1">
          <mxGeometry x="74" y="-645" width="30" height="60" as="geometry" />
        </mxCell>
        <mxCell id="fmvnAEAhjuRsIiG4iUqu-2" value="Adicionar e remover itens do orçamento" style="ellipse;whiteSpace=wrap;html=1;" vertex="1" parent="1">
          <mxGeometry x="404" y="-520" width="124" height="50" as="geometry" />
        </mxCell>
        <mxCell id="fmvnAEAhjuRsIiG4iUqu-3" value="" style="edgeStyle=none;html=1;endArrow=none;verticalAlign=bottom;rounded=0;" edge="1" parent="1" source="fmvnAEAhjuRsIiG4iUqu-1" target="fmvnAEAhjuRsIiG4iUqu-2">
          <mxGeometry width="160" relative="1" as="geometry">
            <mxPoint x="104" y="-615" as="sourcePoint" />
            <mxPoint x="264" y="-615" as="targetPoint" />
          </mxGeometry>
        </mxCell>
        <mxCell id="fmvnAEAhjuRsIiG4iUqu-5" value="Exportar o orçamento em PDF" style="ellipse;whiteSpace=wrap;html=1;" vertex="1" parent="1">
          <mxGeometry x="404" y="-420" width="126" height="50" as="geometry" />
        </mxCell>
        <mxCell id="fmvnAEAhjuRsIiG4iUqu-6" value="" style="edgeStyle=none;html=1;endArrow=none;verticalAlign=bottom;rounded=0;" edge="1" parent="1" source="fmvnAEAhjuRsIiG4iUqu-1" target="fmvnAEAhjuRsIiG4iUqu-5">
          <mxGeometry width="160" relative="1" as="geometry">
            <mxPoint x="104" y="-470" as="sourcePoint" />
            <mxPoint x="264" y="-470" as="targetPoint" />
          </mxGeometry>
        </mxCell>
        <mxCell id="fmvnAEAhjuRsIiG4iUqu-8" value="Receber notificações sobre prazos e limites de orçamento" style="ellipse;whiteSpace=wrap;html=1;" vertex="1" parent="1">
          <mxGeometry x="104" y="-430" width="140" height="70" as="geometry" />
        </mxCell>
        <mxCell id="fmvnAEAhjuRsIiG4iUqu-9" value="" style="edgeStyle=none;html=1;endArrow=none;verticalAlign=bottom;rounded=0;exitX=0.5;exitY=0.5;exitDx=0;exitDy=0;exitPerimeter=0;" edge="1" parent="1" source="fmvnAEAhjuRsIiG4iUqu-1" target="fmvnAEAhjuRsIiG4iUqu-8">
          <mxGeometry width="160" relative="1" as="geometry">
            <mxPoint x="104" y="-340" as="sourcePoint" />
            <mxPoint x="480" y="-454" as="targetPoint" />
          </mxGeometry>
        </mxCell>
        <mxCell id="fmvnAEAhjuRsIiG4iUqu-11" value="Receber Sugestões de fornecedores com filtros por localização, preço e avalização" style="ellipse;whiteSpace=wrap;html=1;" vertex="1" parent="1">
          <mxGeometry x="370" y="-660" width="150" height="80" as="geometry" />
        </mxCell>
        <mxCell id="fmvnAEAhjuRsIiG4iUqu-12" value="" style="edgeStyle=none;html=1;endArrow=none;verticalAlign=bottom;rounded=0;exitX=0.5;exitY=0.5;exitDx=0;exitDy=0;exitPerimeter=0;" edge="1" parent="1" source="fmvnAEAhjuRsIiG4iUqu-1" target="fmvnAEAhjuRsIiG4iUqu-11">
          <mxGeometry width="160" relative="1" as="geometry">
            <mxPoint x="300" y="-695" as="sourcePoint" />
            <mxPoint x="460" y="-695" as="targetPoint" />
          </mxGeometry>
        </mxCell>
        <mxCell id="fmvnAEAhjuRsIiG4iUqu-14" value="Compartilhar o orçamento com outras pessoas via link ou PDF&lt;div&gt;&lt;br&gt;&lt;/div&gt;" style="ellipse;whiteSpace=wrap;html=1;" vertex="1" parent="1">
          <mxGeometry x="396" y="-750" width="140" height="70" as="geometry" />
        </mxCell>
        <mxCell id="fmvnAEAhjuRsIiG4iUqu-16" value="" style="edgeStyle=none;html=1;endArrow=none;verticalAlign=bottom;rounded=0;" edge="1" parent="1" source="fmvnAEAhjuRsIiG4iUqu-1" target="fmvnAEAhjuRsIiG4iUqu-14">
          <mxGeometry width="160" relative="1" as="geometry">
            <mxPoint x="210" y="-790" as="sourcePoint" />
            <mxPoint x="370" y="-790" as="targetPoint" />
          </mxGeometry>
        </mxCell>
        <mxCell id="fmvnAEAhjuRsIiG4iUqu-17" value="Categorizar as despesas do orçamento para melhor organização" style="ellipse;whiteSpace=wrap;html=1;" vertex="1" parent="1">
          <mxGeometry x="-110" y="-450" width="180" height="70" as="geometry" />
        </mxCell>
        <mxCell id="fmvnAEAhjuRsIiG4iUqu-18" value="" style="edgeStyle=none;html=1;endArrow=none;verticalAlign=bottom;rounded=0;" edge="1" parent="1" source="fmvnAEAhjuRsIiG4iUqu-1" target="fmvnAEAhjuRsIiG4iUqu-17">
          <mxGeometry width="160" relative="1" as="geometry">
            <mxPoint x="210" y="-600" as="sourcePoint" />
            <mxPoint x="370" y="-600" as="targetPoint" />
          </mxGeometry>
        </mxCell>
        <mxCell id="fmvnAEAhjuRsIiG4iUqu-19" value="Definir um orçamento máximo e receber alertas quando tal orçamento se aproximar do limite para melhor controle" style="ellipse;whiteSpace=wrap;html=1;" vertex="1" parent="1">
          <mxGeometry x="-60" y="-900" width="200" height="100" as="geometry" />
        </mxCell>
        <mxCell id="fmvnAEAhjuRsIiG4iUqu-20" value="" style="edgeStyle=none;html=1;endArrow=none;verticalAlign=bottom;rounded=0;" edge="1" parent="1" source="fmvnAEAhjuRsIiG4iUqu-1" target="fmvnAEAhjuRsIiG4iUqu-19">
          <mxGeometry width="160" relative="1" as="geometry">
            <mxPoint x="210" y="-600" as="sourcePoint" />
            <mxPoint x="370" y="-600" as="targetPoint" />
          </mxGeometry>
        </mxCell>
        <mxCell id="fmvnAEAhjuRsIiG4iUqu-21" value="Incluir impostos e taxas no cálculo do orçamento, para valores mais precisos" style="ellipse;whiteSpace=wrap;html=1;" vertex="1" parent="1">
          <mxGeometry x="376" y="-840" width="160" height="70" as="geometry" />
        </mxCell>
        <mxCell id="fmvnAEAhjuRsIiG4iUqu-24" value="" style="edgeStyle=none;html=1;endArrow=none;verticalAlign=bottom;rounded=0;" edge="1" parent="1" source="fmvnAEAhjuRsIiG4iUqu-1" target="fmvnAEAhjuRsIiG4iUqu-21">
          <mxGeometry width="160" relative="1" as="geometry">
            <mxPoint x="210" y="-690" as="sourcePoint" />
            <mxPoint x="370" y="-690" as="targetPoint" />
          </mxGeometry>
        </mxCell>
        <mxCell id="PAEJVCjr5ZvTlemUD0j6-2" value="Visualizar um histórico dos orçamentos anteriores" style="ellipse;whiteSpace=wrap;html=1;" vertex="1" parent="1">
          <mxGeometry x="140" y="-960" width="176" height="60" as="geometry" />
        </mxCell>
        <mxCell id="PAEJVCjr5ZvTlemUD0j6-3" value="" style="edgeStyle=none;html=1;endArrow=none;verticalAlign=bottom;rounded=0;exitX=0.313;exitY=0.932;exitDx=0;exitDy=0;exitPerimeter=0;" edge="1" parent="1" source="PAEJVCjr5ZvTlemUD0j6-2" target="fmvnAEAhjuRsIiG4iUqu-1">
          <mxGeometry width="160" relative="1" as="geometry">
            <mxPoint x="215" y="-930" as="sourcePoint" />
            <mxPoint x="280" y="-765" as="targetPoint" />
          </mxGeometry>
        </mxCell>
        <mxCell id="PAEJVCjr5ZvTlemUD0j6-4" value="Integrar o sistema com calendários para definir prazos de pagamento" style="ellipse;whiteSpace=wrap;html=1;" vertex="1" parent="1">
          <mxGeometry x="180" y="-850" width="176" height="60" as="geometry" />
        </mxCell>
        <mxCell id="PAEJVCjr5ZvTlemUD0j6-5" value="" style="edgeStyle=none;html=1;endArrow=none;verticalAlign=bottom;rounded=0;exitX=0.189;exitY=0.951;exitDx=0;exitDy=0;exitPerimeter=0;" edge="1" parent="1" source="PAEJVCjr5ZvTlemUD0j6-4">
          <mxGeometry width="160" relative="1" as="geometry">
            <mxPoint x="309" y="-944" as="sourcePoint" />
            <mxPoint x="114" y="-629" as="targetPoint" />
          </mxGeometry>
        </mxCell>
        <mxCell id="PAEJVCjr5ZvTlemUD0j6-6" value="Adicionar notas e observações a cada item do orçamento" style="ellipse;whiteSpace=wrap;html=1;" vertex="1" parent="1">
          <mxGeometry x="-220" y="-840" width="150" height="70" as="geometry" />
        </mxCell>
        <mxCell id="PAEJVCjr5ZvTlemUD0j6-7" value="" style="edgeStyle=none;html=1;endArrow=none;verticalAlign=bottom;rounded=0;exitX=0.5;exitY=0.5;exitDx=0;exitDy=0;exitPerimeter=0;" edge="1" parent="1" source="fmvnAEAhjuRsIiG4iUqu-1" target="PAEJVCjr5ZvTlemUD0j6-6">
          <mxGeometry width="160" relative="1" as="geometry">
            <mxPoint x="94" y="-635" as="sourcePoint" />
            <mxPoint x="68" y="-790" as="targetPoint" />
          </mxGeometry>
        </mxCell>
        <mxCell id="PAEJVCjr5ZvTlemUD0j6-8" value="Acessar templates de orçamento para diferentes tipos de eventos" style="ellipse;whiteSpace=wrap;html=1;" vertex="1" parent="1">
          <mxGeometry x="-260" y="-740" width="150" height="70" as="geometry" />
        </mxCell>
        <mxCell id="PAEJVCjr5ZvTlemUD0j6-9" value="" style="edgeStyle=none;html=1;endArrow=none;verticalAlign=bottom;rounded=0;" edge="1" parent="1" source="fmvnAEAhjuRsIiG4iUqu-1" target="PAEJVCjr5ZvTlemUD0j6-8">
          <mxGeometry width="160" relative="1" as="geometry">
            <mxPoint x="90" y="-610" as="sourcePoint" />
            <mxPoint x="-98" y="-765" as="targetPoint" />
          </mxGeometry>
        </mxCell>
        <mxCell id="PAEJVCjr5ZvTlemUD0j6-10" value="Definir prioridades de gastos" style="ellipse;whiteSpace=wrap;html=1;" vertex="1" parent="1">
          <mxGeometry x="-290" y="-630" width="140" height="50" as="geometry" />
        </mxCell>
        <mxCell id="PAEJVCjr5ZvTlemUD0j6-11" value="" style="edgeStyle=none;html=1;endArrow=none;verticalAlign=bottom;rounded=0;exitX=0.5;exitY=0.5;exitDx=0;exitDy=0;exitPerimeter=0;" edge="1" parent="1" source="fmvnAEAhjuRsIiG4iUqu-1" target="PAEJVCjr5ZvTlemUD0j6-10">
          <mxGeometry width="160" relative="1" as="geometry">
            <mxPoint x="84" y="-610" as="sourcePoint" />
            <mxPoint x="-114" y="-675" as="targetPoint" />
          </mxGeometry>
        </mxCell>
        <mxCell id="PAEJVCjr5ZvTlemUD0j6-12" value="Importar dados de fornecedores&amp;nbsp;" style="ellipse;whiteSpace=wrap;html=1;" vertex="1" parent="1">
          <mxGeometry x="-300" y="-550" width="130" height="40" as="geometry" />
        </mxCell>
        <mxCell id="PAEJVCjr5ZvTlemUD0j6-13" value="" style="edgeStyle=none;html=1;endArrow=none;verticalAlign=bottom;rounded=0;entryX=0.956;entryY=0.223;entryDx=0;entryDy=0;entryPerimeter=0;" edge="1" parent="1" source="fmvnAEAhjuRsIiG4iUqu-1" target="PAEJVCjr5ZvTlemUD0j6-12">
          <mxGeometry width="160" relative="1" as="geometry">
            <mxPoint x="99" y="-605" as="sourcePoint" />
            <mxPoint x="-140" y="-597" as="targetPoint" />
          </mxGeometry>
        </mxCell>
        <mxCell id="PAEJVCjr5ZvTlemUD0j6-14" value="Visualizar gráficos de distribuição de custos" style="ellipse;whiteSpace=wrap;html=1;" vertex="1" parent="1">
          <mxGeometry x="-300" y="-470" width="130" height="50" as="geometry" />
        </mxCell>
        <mxCell id="PAEJVCjr5ZvTlemUD0j6-15" value="" style="edgeStyle=none;html=1;endArrow=none;verticalAlign=bottom;rounded=0;entryX=1;entryY=0;entryDx=0;entryDy=0;" edge="1" parent="1" target="PAEJVCjr5ZvTlemUD0j6-14">
          <mxGeometry width="160" relative="1" as="geometry">
            <mxPoint x="84" y="-601" as="sourcePoint" />
            <mxPoint x="-166" y="-531" as="targetPoint" />
          </mxGeometry>
        </mxCell>
        <mxCell id="n481gYmwkh8ICUzJ3SMd-1" value="Usuario" style="shape=umlActor;html=1;verticalLabelPosition=bottom;verticalAlign=top;align=center;" vertex="1" parent="1">
          <mxGeometry x="800" y="-1040" width="30" height="60" as="geometry" />
        </mxCell>
        <mxCell id="n481gYmwkh8ICUzJ3SMd-2" value="Fazer Login" style="ellipse;whiteSpace=wrap;html=1;" vertex="1" parent="1">
          <mxGeometry x="960" y="-1110" width="140" height="70" as="geometry" />
        </mxCell>
        <mxCell id="n481gYmwkh8ICUzJ3SMd-3" value="Cadastrar-se no sistema" style="ellipse;whiteSpace=wrap;html=1;" vertex="1" parent="1">
          <mxGeometry x="960" y="-970" width="140" height="70" as="geometry" />
        </mxCell>
        <mxCell id="n481gYmwkh8ICUzJ3SMd-4" value="" style="edgeStyle=none;html=1;endArrow=none;verticalAlign=bottom;rounded=0;exitX=0.5;exitY=0.5;exitDx=0;exitDy=0;exitPerimeter=0;entryX=0;entryY=0.5;entryDx=0;entryDy=0;" edge="1" parent="1" source="n481gYmwkh8ICUzJ3SMd-1" target="n481gYmwkh8ICUzJ3SMd-2">
          <mxGeometry width="160" relative="1" as="geometry">
            <mxPoint x="970" y="-870" as="sourcePoint" />
            <mxPoint x="1130" y="-870" as="targetPoint" />
          </mxGeometry>
        </mxCell>
        <mxCell id="n481gYmwkh8ICUzJ3SMd-5" value="" style="edgeStyle=none;html=1;endArrow=none;verticalAlign=bottom;rounded=0;exitX=0.5;exitY=0.5;exitDx=0;exitDy=0;exitPerimeter=0;entryX=0;entryY=0.5;entryDx=0;entryDy=0;" edge="1" parent="1" source="n481gYmwkh8ICUzJ3SMd-1" target="n481gYmwkh8ICUzJ3SMd-3">
          <mxGeometry width="160" relative="1" as="geometry">
            <mxPoint x="825" y="-1000" as="sourcePoint" />
            <mxPoint x="970" y="-1065" as="targetPoint" />
          </mxGeometry>
        </mxCell>
        <mxCell id="n481gYmwkh8ICUzJ3SMd-6" value="&amp;lt;&amp;lt;include&amp;gt;&amp;gt;" style="edgeStyle=none;html=1;endArrow=open;verticalAlign=bottom;dashed=1;labelBackgroundColor=none;rounded=0;entryX=0.5;entryY=0;entryDx=0;entryDy=0;exitX=0.5;exitY=1;exitDx=0;exitDy=0;" edge="1" parent="1" source="n481gYmwkh8ICUzJ3SMd-2" target="n481gYmwkh8ICUzJ3SMd-3">
          <mxGeometry width="160" relative="1" as="geometry">
            <mxPoint x="1140" y="-1040" as="sourcePoint" />
            <mxPoint x="1130" y="-870" as="targetPoint" />
          </mxGeometry>
        </mxCell>
        <mxCell id="n481gYmwkh8ICUzJ3SMd-7" value="Informar a descrição do evento (tipo, quantidade de pessoas, data, etc)" style="ellipse;whiteSpace=wrap;html=1;" vertex="1" parent="1">
          <mxGeometry x="950" y="-840" width="140" height="70" as="geometry" />
        </mxCell>
        <mxCell id="n481gYmwkh8ICUzJ3SMd-8" value="" style="edgeStyle=none;html=1;endArrow=none;verticalAlign=bottom;rounded=0;entryX=0.5;entryY=0.5;entryDx=0;entryDy=0;entryPerimeter=0;exitX=0.5;exitY=0;exitDx=0;exitDy=0;" edge="1" parent="1" source="n481gYmwkh8ICUzJ3SMd-7" target="n481gYmwkh8ICUzJ3SMd-1">
          <mxGeometry width="160" relative="1" as="geometry">
            <mxPoint x="570" y="-770" as="sourcePoint" />
            <mxPoint x="730" y="-770" as="targetPoint" />
          </mxGeometry>
        </mxCell>
        <mxCell id="n481gYmwkh8ICUzJ3SMd-10" value="Visualizar orçamento" style="ellipse;whiteSpace=wrap;html=1;" vertex="1" parent="1">
          <mxGeometry x="940" y="-710" width="140" height="70" as="geometry" />
        </mxCell>
        <mxCell id="n481gYmwkh8ICUzJ3SMd-11" value="" style="edgeStyle=none;html=1;endArrow=none;verticalAlign=bottom;rounded=0;entryX=0.5;entryY=0.5;entryDx=0;entryDy=0;entryPerimeter=0;exitX=0;exitY=0.5;exitDx=0;exitDy=0;" edge="1" parent="1" source="n481gYmwkh8ICUzJ3SMd-10" target="n481gYmwkh8ICUzJ3SMd-1">
          <mxGeometry width="160" relative="1" as="geometry">
            <mxPoint x="630" y="-680" as="sourcePoint" />
            <mxPoint x="790" y="-680" as="targetPoint" />
          </mxGeometry>
        </mxCell>
        <mxCell id="n481gYmwkh8ICUzJ3SMd-12" value="&amp;lt;&amp;lt;include&amp;gt;&amp;gt;" style="edgeStyle=none;html=1;endArrow=open;verticalAlign=bottom;dashed=1;labelBackgroundColor=none;rounded=0;entryX=0.5;entryY=1;entryDx=0;entryDy=0;exitX=0.5;exitY=0;exitDx=0;exitDy=0;" edge="1" parent="1" source="n481gYmwkh8ICUzJ3SMd-10" target="n481gYmwkh8ICUzJ3SMd-7">
          <mxGeometry width="160" relative="1" as="geometry">
            <mxPoint x="730" y="-700" as="sourcePoint" />
            <mxPoint x="890" y="-700" as="targetPoint" />
          </mxGeometry>
        </mxCell>
        <mxCell id="n481gYmwkh8ICUzJ3SMd-14" value="Exportar o orçamento em PDF" style="ellipse;whiteSpace=wrap;html=1;" vertex="1" parent="1">
          <mxGeometry x="940" y="-560" width="126" height="50" as="geometry" />
        </mxCell>
        <mxCell id="n481gYmwkh8ICUzJ3SMd-15" value="&amp;lt;&amp;lt;extend&amp;gt;&amp;gt;" style="edgeStyle=none;html=1;startArrow=open;endArrow=none;startSize=12;verticalAlign=bottom;dashed=1;labelBackgroundColor=none;rounded=0;entryX=0.5;entryY=1;entryDx=0;entryDy=0;" edge="1" parent="1" source="n481gYmwkh8ICUzJ3SMd-14" target="n481gYmwkh8ICUzJ3SMd-10">
          <mxGeometry width="160" relative="1" as="geometry">
            <mxPoint x="650" y="-520" as="sourcePoint" />
            <mxPoint x="810" y="-520" as="targetPoint" />
          </mxGeometry>
        </mxCell>
        <mxCell id="n481gYmwkh8ICUzJ3SMd-16" value="Adicionar itens do orçamento" style="ellipse;whiteSpace=wrap;html=1;" vertex="1" parent="1">
          <mxGeometry x="1170" y="-900" width="124" height="50" as="geometry" />
        </mxCell>
        <mxCell id="n481gYmwkh8ICUzJ3SMd-17" value="remover itens do orçamento" style="ellipse;whiteSpace=wrap;html=1;" vertex="1" parent="1">
          <mxGeometry x="1160" y="-720" width="124" height="50" as="geometry" />
        </mxCell>
        <mxCell id="n481gYmwkh8ICUzJ3SMd-18" value="&amp;lt;&amp;lt;include&amp;gt;&amp;gt;" style="edgeStyle=none;html=1;endArrow=open;verticalAlign=bottom;dashed=1;labelBackgroundColor=none;rounded=0;exitX=0;exitY=0.5;exitDx=0;exitDy=0;entryX=1.025;entryY=0.415;entryDx=0;entryDy=0;entryPerimeter=0;" edge="1" parent="1" source="n481gYmwkh8ICUzJ3SMd-16" target="n481gYmwkh8ICUzJ3SMd-7">
          <mxGeometry width="160" relative="1" as="geometry">
            <mxPoint x="820" y="-760" as="sourcePoint" />
            <mxPoint x="980" y="-760" as="targetPoint" />
          </mxGeometry>
        </mxCell>
        <mxCell id="n481gYmwkh8ICUzJ3SMd-19" value="&amp;lt;&amp;lt;extend&amp;gt;&amp;gt;" style="edgeStyle=none;html=1;startArrow=open;endArrow=none;startSize=12;verticalAlign=bottom;dashed=1;labelBackgroundColor=none;rounded=0;exitX=0.5;exitY=1;exitDx=0;exitDy=0;entryX=0.5;entryY=0;entryDx=0;entryDy=0;" edge="1" parent="1" source="n481gYmwkh8ICUzJ3SMd-16" target="n481gYmwkh8ICUzJ3SMd-17">
          <mxGeometry width="160" relative="1" as="geometry">
            <mxPoint x="820" y="-760" as="sourcePoint" />
            <mxPoint x="980" y="-760" as="targetPoint" />
          </mxGeometry>
        </mxCell>
      </root>
    </mxGraphModel>
  </diagram>
</mxfile>
